# xmcd
#
# Track frame offsets:
# 150
# 15985
# 29710
# 41410
# 56785
# 70445
# 90085
# 112645
# 123135
# 135610
# 144940
# 159360
# 172810
# 188785
# 205135
# 220855
#
# Disc length: 3150 seconds
#
#
# Revision: 1
# Processed by: cddbd v1.5.2PL0 Copyright (c) Steve Scherf et al.
# Submitted via: FreeRIP 2.945 
#
DISCID=ca0c4c10
DTITLE=Marilyn Monroe - Great American Legends
DYEAR=1991
DGENRE=Pop
TTITLE0=Diamonds Are A Girl's Best Friend
TTITLE1=A Little Girl From Little Rock
TTITLE2=I'm Gonna File My Claim
TTITLE3=When Love Goes Wrong, Nothing Goes Right
TTITLE4=You'd Be Surprised
TTITLE5=Heat Wave
TTITLE6=My Heart Belongs To Daddy
TTITLE7=A Fine Romance
TTITLE8=She Acts Like A Woman Should
TTITLE9=One Silver Dollar
TTITLE10=Do It Again
TTITLE11=Kiss
TTITLE12=Lazy
TTITLE13=After You Get What You Want, You Don't Want It
TTITLE14=Specialization
TTITLE15=Bye Bye Baby
EXTD=
EXTT0=
EXTT1=
EXTT2=
EXTT3=
EXTT4=
EXTT5=
EXTT6=
EXTT7=
EXTT8=
EXTT9=
EXTT10=
EXTT11=
EXTT12=
EXTT13=
EXTT14=
EXTT15=
PLAYORDER=
